<?xml version="1.0" encoding="UTF-8" standalone="no"?> <!-- Created with Vectornator for iOS (http://vectornator.io/) --><!DOCTYPE svg PUBLIC "-//W3C//DTD SVG 1.1//EN" "http://www.w3.org/Graphics/SVG/1.1/DTD/svg11.dtd">
<svg style="fill-rule:evenodd;clip-rule:evenodd;stroke-linecap:round;stroke-linejoin:round;" xmlns:vectornator="http://vectornator.io" xmlns:xlink="http://www.w3.org/1999/xlink" xmlns="http://www.w3.org/2000/svg" xml:space="preserve" version="1.1" viewBox="0 0 1024 1024">
<metadata>
<vectornator:setting key="DisplayWhiteBackground" value="1"/>
<vectornator:setting key="RulersVisible" value="1"/>
<vectornator:setting key="OutlineMode" value="0"/>
<vectornator:setting key="Units" value="Pixels"/>
<vectornator:setting key="SnapToEdges" value="0"/>
<vectornator:setting key="DynamicGuides" value="0"/>
<vectornator:setting key="SnapToPoints" value="0"/>
<vectornator:setting key="SnapToGrid" value="0"/>
<vectornator:setting key="SnapToGuides" value="1"/>
<vectornator:setting key="IsolateActiveLayer" value="0"/>
<vectornator:setting key="GridSpacing" value="36"/>
</metadata>
<defs/>
<g id="Layer 2" vectornator:layerName="Layer 2">
<path stroke="#000000" vectornator:shadowColor="#000000" vectornator:shadowOffset="6.56108" stroke-width="1" fill="#000000" stroke-linecap="butt" vectornator:shadowAngle="1.5708" stroke-linejoin="round" opacity="1" vectornator:shadowRadius="13.3484" d="M484.756+323.777L522.662+323.777L522.662+507.323L484.756+507.323L484.756+323.777Z" vectornator:shadowOpacity="0.345424"/>
<path stroke="#000000" vectornator:shadowColor="#000000" vectornator:shadowOffset="6.56108" stroke-width="1" fill="#000000" stroke-linecap="butt" vectornator:shadowAngle="1.5708" stroke-linejoin="round" opacity="1" vectornator:shadowRadius="13.3484" d="M503.995+275.455L504.191+275.455C527.31+275.455+546.051+294.776+546.051+318.609L546.051+318.609C546.051+342.443+527.31+361.764+504.191+361.764L503.995+361.764C480.876+361.764+462.135+342.443+462.135+318.609L462.135+318.609C462.135+294.776+480.876+275.455+503.995+275.455Z" vectornator:shadowOpacity="0.345424"/>
</g>
<g id="Layer 1" vectornator:layerName="Layer 1">
<path stroke="#000000" vectornator:shadowColor="#000000" vectornator:shadowOffset="6.56108" stroke-width="1" fill="#000000" stroke-linecap="butt" vectornator:shadowAngle="1.5708" stroke-linejoin="round" opacity="1" vectornator:shadowRadius="13.3484" d="M356.145+431.437L651.43+431.437C708.911+431.437+755.509+477.468+755.509+534.25L755.509+541.841C755.509+598.623+708.911+644.654+651.43+644.654L356.145+644.654C298.664+644.654+252.066+598.623+252.066+541.841L252.066+534.25C252.066+477.468+298.664+431.437+356.145+431.437Z" vectornator:shadowOpacity="0.345424"/>
<path stroke="#000000" vectornator:shadowColor="#000000" vectornator:shadowOffset="6.56108" stroke-width="1" fill="#000000" stroke-linecap="butt" vectornator:shadowAngle="1.5708" stroke-linejoin="round" opacity="1" vectornator:shadowRadius="9.69347" d="M453.07+552.128L560.86+552.128L560.86+602.097L453.07+602.097L453.07+552.128Z" vectornator:shadowOpacity="0"/>
<path stroke="#000000" vectornator:shadowColor="#000000" vectornator:shadowOffset="6.56108" stroke-width="1" fill="#ffffff" stroke-linecap="butt" vectornator:shadowAngle="1.5708" stroke-linejoin="round" opacity="1" vectornator:shadowRadius="13.3484" d="M379.101+467.234L630.672+467.234C679.643+467.234+719.343+498.535+719.343+537.146L719.343+542.308C719.343+580.92+679.643+612.22+630.672+612.22L379.101+612.22C330.129+612.22+290.43+580.92+290.43+542.308L290.43+537.146C290.43+498.535+330.129+467.234+379.101+467.234Z" vectornator:shadowOpacity="0.345424"/>
</g>
<g id="Layer 4" vectornator:layerName="Layer 4">
<path stroke="#000000" vectornator:shadowColor="#000000" vectornator:shadowOffset="6.56108" stroke-width="1" fill="#3bacff" stroke-linecap="butt" vectornator:shadowAngle="1.5708" stroke-linejoin="round" opacity="1" vectornator:shadowRadius="13.3484" d="M361.251+503.86L361.251+503.86C380.285+503.86+395.715+520.028+395.715+539.973L395.715+540.72C395.715+560.665+380.285+576.833+361.251+576.833L361.251+576.833C342.217+576.833+326.787+560.665+326.787+540.72L326.787+539.973C326.787+520.028+342.217+503.86+361.251+503.86Z" stroke-opacity="0" vectornator:shadowOpacity="0.345424"/>
<path stroke="#000000" vectornator:shadowColor="#000000" vectornator:shadowOffset="6.56108" stroke-width="1" fill="#3bacff" stroke-linecap="butt" vectornator:shadowAngle="1.5708" stroke-linejoin="round" opacity="1" vectornator:shadowRadius="13.3484" d="M649.117+505.046L649.117+505.046C668.151+505.046+683.581+521.214+683.581+541.159L683.581+541.906C683.581+561.851+668.151+578.02+649.117+578.02L649.117+578.02C630.083+578.02+614.653+561.851+614.653+541.906L614.653+541.159C614.653+521.214+630.083+505.046+649.117+505.046Z" stroke-opacity="0" vectornator:shadowOpacity="0.345424"/>
<path stroke="#000000" vectornator:shadowColor="#000000" vectornator:shadowOffset="6.56108" stroke-width="1" fill="#3bacff" stroke-linecap="butt" vectornator:shadowAngle="1.5708" stroke-linejoin="round" opacity="1" vectornator:shadowRadius="13.3484" d="M497.276+541.211L511.541+541.211C527.82+541.211+541.017+554.407+541.017+570.687L541.017+570.687C541.017+586.966+527.82+600.163+511.541+600.163L497.276+600.163C480.997+600.163+467.8+586.966+467.8+570.687L467.8+570.687C467.8+554.407+480.997+541.211+497.276+541.211Z" stroke-opacity="0" vectornator:shadowOpacity="0"/>
<path stroke="#000000" vectornator:shadowColor="#000000" vectornator:shadowOffset="6.56108" stroke-width="1" fill="#ffffff" stroke-linecap="butt" vectornator:shadowAngle="1.5708" stroke-linejoin="round" opacity="1" vectornator:shadowRadius="13.3484" d="M500.219+553.09L507.258+553.09C519.528+553.09+529.474+561.671+529.474+572.257L529.474+572.257C529.474+582.843+519.528+591.424+507.258+591.424L500.219+591.424C487.95+591.424+478.003+582.843+478.003+572.257L478.003+572.257C478.003+561.671+487.95+553.09+500.219+553.09Z" stroke-opacity="0" vectornator:shadowOpacity="0.0168"/>
<path stroke="#000000" vectornator:shadowColor="#000000" vectornator:shadowOffset="6.56108" stroke-width="1" fill="#ffffff" stroke-linecap="butt" vectornator:shadowAngle="1.5708" stroke-linejoin="round" opacity="1" vectornator:shadowRadius="13.3484" d="M502.929+570.788L505.153+570.788C505.942+570.788+506.582+571.428+506.582+572.217L506.582+572.217C506.582+573.007+505.942+573.647+505.153+573.647L502.929+573.647C502.139+573.647+501.499+573.007+501.499+572.217L501.499+572.217C501.499+571.428+502.139+570.788+502.929+570.788Z" stroke-opacity="0" vectornator:shadowOpacity="0.0168"/>
<path stroke="#000000" vectornator:shadowColor="#000000" vectornator:shadowOffset="6.56108" stroke-width="1" fill="#ffffff" stroke-linecap="butt" vectornator:shadowAngle="1.5708" stroke-linejoin="round" opacity="1" vectornator:shadowRadius="13.3484" d="M464.88+522.115L541.336+522.115L541.336+575.896L464.88+575.896L464.88+522.115Z" stroke-opacity="0" vectornator:shadowOpacity="0.0168"/>
</g>
<g id="Layer 3" vectornator:layerName="Layer 3" visibility="hidden">
<path stroke="#ffffff" vectornator:shadowColor="#000000" vectornator:shadowOffset="6.56108" stroke-width="1" fill="#ffffff" stroke-linecap="butt" vectornator:shadowAngle="1.5708" stroke-linejoin="round" opacity="1" vectornator:shadowRadius="13.3484" d="M388.595+472.99L391.414+474.205C427.377+489.703+443.968+531.421+428.469+567.384L428.469+567.384C412.971+603.347+371.253+619.937+335.29+604.439L332.471+603.224C296.508+587.726+279.918+546.008+295.416+510.045L295.416+510.045C310.914+474.082+352.632+457.492+388.595+472.99Z" vectornator:shadowOpacity="0.345424"/>
<path stroke="#ffffff" vectornator:shadowColor="#000000" vectornator:shadowOffset="6.56108" stroke-width="1" fill="#ffffff" stroke-linecap="butt" vectornator:shadowAngle="1.5708" stroke-linejoin="round" opacity="1" vectornator:shadowRadius="13.3484" d="M675.93+475.241L678.748+476.456C714.712+491.954+731.302+533.672+715.803+569.635L715.803+569.635C700.305+605.598+658.587+622.188+622.624+606.69L619.805+605.475C583.842+589.977+567.252+548.259+582.75+512.296L582.75+512.296C598.249+476.332+639.966+459.742+675.93+475.241Z" vectornator:shadowOpacity="0.345424"/>
</g>
</svg>
