<?xml version="1.0"?>
<svg width="800" height="400" xmlns="http://www.w3.org/2000/svg" xmlns:svg="http://www.w3.org/2000/svg" clip-rule="evenodd">
 <metadata/>

 <g class="layer">
  <title>Layer 1</title>
  <g id="Layer 2">
   <path d="m373.756,69.777l37.906,0l0,183.546l-37.906,0l0,-183.546z" fill="#000000" id="svg_1" stroke="#000000" stroke-linejoin="round"/>
   <path d="m392.995,21.455l0.196,0c23.119,0 41.86,19.321 41.86,43.154l0,0c0,23.834 -18.741,43.155 -41.86,43.155l-0.196,0c-23.119,0 -41.86,-19.321 -41.86,-43.155l0,0c0,-23.833 18.741,-43.154 41.86,-43.154z" fill="#000000" id="svg_2" stroke="#000000" stroke-linejoin="round"/>
  </g>
  <g id="Layer 1">
   <path d="m248.145,169.437l295.285,0c57.481,0 104.079,46.031 104.079,102.813l0,7.591c0,56.782 -46.598,102.813 -104.079,102.813l-295.285,0c-57.481,0 -104.079,-46.031 -104.079,-102.813l0,-7.591c0,-56.782 46.598,-102.813 104.079,-102.813z" fill="#000000" id="svg_3" stroke="#000000" stroke-linejoin="round"/>
   <path d="m345.07,290.128l107.79,0l0,49.969l-107.79,0l0,-49.969z" fill="#000000" id="svg_4" stroke="#000000" stroke-linejoin="round"/>
   <path d="m271.101,205.234l251.571,0c48.971,0 88.671,31.301 88.671,69.912l0,5.162c0,38.612 -39.7,69.912 -88.671,69.912l-251.571,0c-48.972,0 -88.671,-31.3 -88.671,-69.912l0,-5.162c0,-38.611 39.699,-69.912 88.671,-69.912z" fill="#ffffff" id="svg_5" stroke="#000000" stroke-linejoin="round"/>
  </g>
  <g id="Layer 4">
   <path d="m252.251,239.86l0,0c19.034,0 34.464,16.168 34.464,36.113l0,0.747c0,19.945 -15.43,36.113 -34.464,36.113l0,0c-19.034,0 -34.464,-16.168 -34.464,-36.113l0,-0.747c0,-19.945 15.43,-36.113 34.464,-36.113z" fill="#3bacff" id="svg_6" stroke="#000000" stroke-linejoin="round" stroke-opacity="0"/>
   <path d="m540.117,241.046l0,0c19.034,0 34.464,16.168 34.464,36.113l0,0.747c0,19.945 -15.43,36.114 -34.464,36.114l0,0c-19.034,0 -34.464,-16.169 -34.464,-36.114l0,-0.747c0,-19.945 15.43,-36.113 34.464,-36.113z" fill="#3bacff" id="svg_7" stroke="#000000" stroke-linejoin="round" stroke-opacity="0"/>
   <path d="m388.276,277.211l14.265,0c16.279,0 29.476,13.196 29.476,29.476l0,0c0,16.279 -13.197,29.476 -29.476,29.476l-14.265,0c-16.279,0 -29.476,-13.197 -29.476,-29.476l0,0c0,-16.28 13.197,-29.476 29.476,-29.476z" fill="#3bacff" id="svg_8" stroke="#000000" stroke-linejoin="round" stroke-opacity="0"/>
   <path d="m391.219,289.09l7.039,0c12.27,0 22.216,8.581 22.216,19.167l0,0c0,10.586 -9.946,19.167 -22.216,19.167l-7.039,0c-12.269,0 -22.216,-8.581 -22.216,-19.167l0,0c0,-10.586 9.947,-19.167 22.216,-19.167z" fill="#ffffff" id="svg_9" stroke="#000000" stroke-linejoin="round" stroke-opacity="0"/>
   <path d="m393.929,306.788l2.224,0c0.789,0 1.429,0.64 1.429,1.429l0,0c0,0.79 -0.64,1.43 -1.429,1.43l-2.224,0c-0.79,0 -1.43,-0.64 -1.43,-1.43l0,0c0,-0.789 0.64,-1.429 1.43,-1.429z" fill="#ffffff" id="svg_10" stroke="#000000" stroke-linejoin="round" stroke-opacity="0"/>
   <path d="m355.88,258.115l76.456,0l0,53.781l-76.456,0l0,-53.781z" fill="#ffffff" id="svg_11" stroke="#000000" stroke-linejoin="round" stroke-opacity="0"/>
  </g>
 </g>
</svg>